<?xml version="1.0" encoding="UTF-8" standalone="no" ?>
<!DOCTYPE svg PUBLIC "-//W3C//DTD SVG 1.1//EN" "http://www.w3.org/Graphics/SVG/1.1/DTD/svg11.dtd">
<svg xmlns="http://www.w3.org/2000/svg" xmlns:xlink="http://www.w3.org/1999/xlink" version="1.1" width="1280" height="1024" viewBox="0 0 1280 1024" xml:space="preserve">
<desc>Created with Fabric.js 5.3.0</desc>
<defs>
</defs>
<g transform="matrix(1 0 0 1 640 512)" id="background-logo"  >
<rect style="stroke: none; stroke-width: 0; stroke-dasharray: none; stroke-linecap: butt; stroke-dashoffset: 0; stroke-linejoin: miter; stroke-miterlimit: 4; fill: rgb(21,101,192); fill-rule: nonzero; opacity: 1;"  paint-order="stroke"  x="-640" y="-512" rx="0" ry="0" width="1280" height="1024" />
</g>
<g transform="matrix(1.4254304544922463 0 0 1.4254304544922463 217.41087253414275 512.7579666160851)" id="logo-logo"  >
<g style=""  paint-order="stroke"   >
		<g transform="matrix(0.4438083802381712 0 0 0.4438083802381712 65.35903938702472 -69.40020677730166)"  >
<path style="stroke: none; stroke-width: 1; stroke-dasharray: none; stroke-linecap: butt; stroke-dashoffset: 0; stroke-linejoin: miter; stroke-miterlimit: 4; fill: rgb(255,255,255); fill-rule: nonzero; opacity: 1;"  paint-order="stroke"  transform=" translate(-497.2685975786379, -193.6257300193281)" d="M 480.2781677 225.0645599 C 495.47064209999996 233.2752533 515.3939819 225.8555297 524.7776489 208.492691 C 534.1613159 191.12937920000002 529.4521484 170.39718620000002 514.2591552 162.1869812 C 499.0661926 153.9762878 479.1428222 161.3955231 469.7591857 178.7588501 C 460.3760071 196.1221619 465.0852051 216.8538666 480.2781677 225.0645599 z" stroke-linecap="round" />
</g>
		<g transform="matrix(0.4438083802381712 0 0 0.4438083802381712 78.57984539416185 -36.28207205580193)"  >
<path style="stroke: none; stroke-width: 1; stroke-dasharray: none; stroke-linecap: butt; stroke-dashoffset: 0; stroke-linejoin: miter; stroke-miterlimit: 4; fill: rgb(255,255,255); fill-rule: nonzero; opacity: 1;"  paint-order="stroke"  transform=" translate(-527.0580440961692, -268.248328861934)" d="M 613.9914551 240.4321747 C 613.7014771 239.70761109999998 612.901062 237.0509186 611.9317017000001 233.7828217 C 609.2365113000001 224.6959382 599.8315430000001 219.355835 590.6478882000001 221.7005158 C 581.7652588000001 223.96882630000002 576.0993653000002 232.6617127 577.6089478000001 241.7046357 C 577.6089478000001 241.7046357 578.6323243000002 247.7891236 578.8446045000002 248.9121857 C 578.6367188000002 249.03771980000002 553.5465088000002 264.4429932 544.7131958000002 269.9970703 C 544.5794678000002 269.9300232 544.3442383000003 269.81243900000004 544.3442383000003 269.81243900000004 C 517.4959107000003 256.38757330000004 451.4123841000003 223.67761230000005 437.98519900000025 222.11254890000004 C 444.01434330000023 265.51031500000005 491.8182678000002 294.41873180000005 492.3049011000003 294.70809940000004 C 492.3052063000003 294.70828250000005 525.4320068000003 310.97158820000004 525.4330444000003 310.97210700000005 C 538.5284423000003 317.64196780000003 555.3338623000003 316.75820930000003 567.0796508000003 307.82601940000006 L 600.1324462000003 282.29550180000007 C 613.4497681 273.3937378 619.7562256 255.4384613 613.9914551 240.4321747 z" stroke-linecap="round" />
</g>
		<g transform="matrix(0.4438083802381712 0 0 0.4438083802381712 29.442625597761264 43.1390949867056)"  >
<path style="stroke: none; stroke-width: 1; stroke-dasharray: none; stroke-linecap: butt; stroke-dashoffset: 0; stroke-linejoin: miter; stroke-miterlimit: 4; fill: rgb(255,255,255); fill-rule: nonzero; opacity: 1;"  paint-order="stroke"  transform=" translate(-416.34084725092043, -447.20206335402696)" d="M 426.016449 363.0798035 C 394.0270386 362.1329956 372.56384280000003 381.992096 366.6967469 387.0869141 C 388.4940186 395.1103211 428.07009899999997 412.3429871 428.8289185 412.5032959 C 429.93942269999997 412.9735413 430.359314 415.3041687 429.1416321 416.0111694 C 408.49334719999996 431.4017028 387.6322632 447.52969360000003 368.4344483 464.93569940000003 C 363.4381714 469.59863270000005 357.0740662 473.90509030000004 354.7566834 480.59677120000003 C 351.79568489999997 489.2007446 353.6420594 491.08508300000005 353.9770508 497.6397094 C 355.14358519999996 507.5565795 356.38424679999997 513.3538818000001 358.19369509999996 521.005249 C 359.28652959999994 525.6265869 362.6704407 529.4985962000001 367.23071289999996 530.8233642 C 374.16137699999996 532.8366699000001 381.07919309999994 528.9564208 383.27877809999995 522.5045776000001 C 385.4825135 516.0404052 387.262909 511.06347650000004 388.89791869999993 503.44573970000005 C 389.3914489999999 501.14660640000005 390.8359679999999 499.17059320000004 392.8646850999999 497.98147580000006 C 406.2239379999999 490.1510620000001 449.1149291999999 463.9970703000001 464.2530517999999 451.4393921000001 C 474.2622680999999 442.1738892000001 479.1548767999999 429.5773621000001 479.55407719999994 416.7988281000001 C 480.4794617 387.1775208 456.9378662 363.9950256 426.016449 363.0798035 z" stroke-linecap="round" />
</g>
		<g transform="matrix(0.4438083802381712 0 0 0.4438083802381712 -14.379472043573287 -33.277117495819596)"  >
<path style="stroke: none; stroke-width: 1; stroke-dasharray: none; stroke-linecap: butt; stroke-dashoffset: 0; stroke-linejoin: miter; stroke-miterlimit: 4; fill: rgb(255,255,255); fill-rule: nonzero; opacity: 1;"  paint-order="stroke"  transform=" translate(-317.5998148760535, -275.01916666893914)" d="M 411.0748596 222.925354 C 381.8078613 224.3851776 332.30715940000005 226.9844665 329.6907043 227.6693726 C 320.4415893 229.2376557 311.7962951 237.7657624 304.7236022 243.3856965 C 289.92294300000003 255.5066682 260.8159484 280.96466069999997 260.8093566 281.0884095 C 259.6584167 281.5017396 257.0910338 282.2921754 255.8593291 282.7418214 C 250.4423674 284.69702159999997 243.4587096 286.2991639 238.76023849999999 289.724579 C 232.3235777 293.6887819 228.60937489999998 300.5743104 225.39183029999998 307.5513002 C 222.45156849999998 313.92700210000004 224.78219589999998 321.4955446 230.7915038 325.1271974 C 236.8652038 328.7985231 244.74568169999998 327.2482912 248.9870604 321.5582887 C 250.19483929999998 319.9387513 253.57080059999998 315.30554209999997 253.517105 315.6058046 C 254.1268767 315.341675 270.9056701 314.4747011 281.375122 307.7203981 C 298.625946 296.5911562 327.5762023 276.95932020000004 338.9588012 269.10113540000003 C 344.31607049999997 269.30047620000005 350.1349487 269.41638200000006 356.2154235 269.4808656 L 358.0963134 266.5892946 C 371.0383606 243.0525665 394.0921631 229.841095 411.0748596 222.925354 z" stroke-linecap="round" />
</g>
		<g transform="matrix(0.4438083802381712 0 0 0.4438083802381712 -58.82105340811552 35.34542813856024)"  >
<path style="stroke: none; stroke-width: 1; stroke-dasharray: none; stroke-linecap: butt; stroke-dashoffset: 0; stroke-linejoin: miter; stroke-miterlimit: 4; fill: rgb(255,255,255); fill-rule: nonzero; opacity: 1;"  paint-order="stroke"  transform=" translate(-217.46294648097597, -429.6411807858275)" d="M 330.3800354 318.12323 C 329.263855 319.13742069999995 303.6453552 334.9738159 303.6428223 334.9753723 C 289.69369509999996 343.5178528 292.778595 360.1125793 293.353302 362.66827390000003 C 273.9154053 382.7059631 254.68453979999998 403.03576660000004 235.4750671 423.28802490000004 C 230.9358825 428.43524170000006 225.541214 433.13607790000003 219.0467376 435.6342468 C 219.0351562 435.6383667 104.5310363 482.6075134 96.7075729 485.93557740000006 C 87.9212341 489.67285160000006 82.6106796 499.62905880000005 84.1262588 508.9557495000001 L 86.5960235 527.3141479000001 C 87.623764 534.9535522000001 93.9466094 541.0401611000001 101.6539459 541.1572875 C 110.2895431 541.2885741 117.2493667 534.3928222000001 117.3095474 525.8930663000001 C 117.3231964 524.0073851000001 117.3366394 522.0756835000001 117.3488235 520.1903075000001 C 117.3683471 517.1701049000002 119.3751144 514.5352782000001 122.2831726 513.7197875000002 C 146.3653717 506.9665221000002 250.5257111 477.91738880000014 250.5257111 477.91738880000014 C 263.3520203 473.4879454000001 274.8566895 465.51510610000014 284.2411805 455.7363280000001 C 306.02774059999996 434.49047840000014 327.80853279999997 413.09152210000013 349.35552989999996 391.5804442000001 C 349.3556213 391.579834 359.4686584 358.6878662 330.3800354 318.12323 z" stroke-linecap="round" />
</g>
		<g transform="matrix(0.4438083802381712 0 0 0.4438083802381712 27.424679220280154 -20.66579819124692)"  >
<path style="stroke: none; stroke-width: 1; stroke-dasharray: none; stroke-linecap: butt; stroke-dashoffset: 0; stroke-linejoin: miter; stroke-miterlimit: 4; fill: rgb(255,255,255); fill-rule: nonzero; opacity: 1;"  paint-order="stroke"  transform=" translate(-411.79396065000003, -303.4353027)" d="M 432.2603455 221.914978 C 432.258667 221.914978 383.7466736 231.4388275 362.8963929 269.5325927 L 334.15478520000005 313.7174377 C 362.15463260000007 351.9299926 356.31201180000005 384.64233390000004 356.31201180000005 384.64233390000004 C 356.31201180000005 384.64233390000004 360.6680299000001 384.95495600000004 360.6679078 384.9556274 L 360.6680299 384.95495600000004 C 360.6680299 384.95495600000004 390.1900026 356.0112609 424.06301890000003 358.21154780000006 L 424.0639039 358.21154780000006 L 446.5717164 318.87948600000004 C 447.284485 317.63372790000005 448.0954286 316.47454830000004 448.99057020000004 315.4119567 C 451.67593400000004 312.22583000000003 455.1236574 309.9141234 458.977234 308.7673949 L 488.1280214 300.0891417 C 488.58099380000004 299.9538878 488.99176040000003 299.71624740000004 489.4331361 299.54959090000006 L 489.4331361 299.54879740000007 C 489.433136 299.5487976 438.1657104 269.1852417 432.2603455 221.914978 z" stroke-linecap="round" />
</g>
</g>
</g>
<g transform="matrix(1.9211538461538462 0 0 1.9211538461538462 838.9206089358227 511.05621377460915)" id="text-logo"  >
<g style=""  paint-order="stroke"   >
		<g transform="matrix(1 0 0 1 0 0)" id="text-logo-path-0"  >
<path style="stroke: none; stroke-width: 0; stroke-dasharray: none; stroke-linecap: butt; stroke-dashoffset: 0; stroke-linejoin: miter; stroke-miterlimit: 4; fill: rgb(255,255,255); fill-rule: nonzero; opacity: 1;"  paint-order="stroke"  transform=" translate(-192.01500000000001, 16.625)" d="M 11.42 0 L 3.93 0 L 3.93 -33.25 L 15.91 -33.25 Q 18.56 -33.25 20.88 -32.74 Q 23.21 -32.23 24.94 -31.03 Q 26.67 -29.84 27.69 -27.85 Q 28.71 -25.86 28.71 -22.9 L 28.71 -22.9 Q 28.71 -19.23 27.11 -16.86 Q 25.5 -14.48 22.8 -13.31 L 22.8 -13.31 L 30.35 0 L 21.93 0 L 15.56 -11.99 L 11.42 -11.99 L 11.42 0 Z M 11.42 -27.29 L 11.42 -17.95 L 15.3 -17.95 Q 18.26 -17.95 19.81 -19.2 Q 21.37 -20.45 21.37 -22.9 L 21.37 -22.9 Q 21.37 -25.35 19.81 -26.32 Q 18.26 -27.29 15.3 -27.29 L 15.3 -27.29 L 11.42 -27.29 Z M 66.71 0 L 45.39 0 L 45.39 -33.25 L 66.2 -33.25 L 66.2 -26.93 L 52.89 -26.93 L 52.89 -20.25 L 64.21 -20.25 L 64.21 -13.97 L 52.89 -13.97 L 52.89 -6.32 L 66.71 -6.32 L 66.71 0 Z M 104.19 0 L 83.54 0 L 83.54 -33.25 L 91.04 -33.25 L 91.04 -6.32 L 104.19 -6.32 L 104.19 0 Z M 127.65 -16.83 L 127.65 -16.83 L 126.84 -13.77 L 133.93 -13.77 L 133.16 -16.83 Q 132.45 -19.33 131.78 -22.13 Q 131.12 -24.94 130.46 -27.54 L 130.46 -27.54 L 130.25 -27.54 Q 129.64 -24.89 129 -22.11 Q 128.37 -19.33 127.65 -16.83 Z M 123.27 0 L 115.62 0 L 126.02 -33.25 L 135.05 -33.25 L 145.45 0 L 137.5 0 L 135.46 -7.91 L 125.31 -7.91 L 123.27 0 Z M 171.56 0 L 164.07 0 L 164.07 -11.83 L 154.02 -33.25 L 162.08 -33.25 L 165.04 -25.6 Q 165.75 -23.72 166.39 -21.96 Q 167.03 -20.2 167.74 -18.26 L 167.74 -18.26 L 167.94 -18.26 Q 168.66 -20.2 169.35 -21.96 Q 170.03 -23.72 170.75 -25.6 L 170.75 -25.6 L 173.76 -33.25 L 181.61 -33.25 L 171.56 -11.83 L 171.56 0 Z M 216.65 0 L 195.33 0 L 195.33 -33.25 L 216.14 -33.25 L 216.14 -26.93 L 202.83 -26.93 L 202.83 -20.25 L 214.15 -20.25 L 214.15 -13.97 L 202.83 -13.97 L 202.83 -6.32 L 216.65 -6.32 L 216.65 0 Z M 240.62 0 L 233.48 0 L 233.48 -33.25 L 241.18 -33.25 L 249.85 -16.73 L 253.11 -9.38 L 253.32 -9.38 Q 253.06 -12.04 252.73 -15.3 Q 252.4 -18.56 252.4 -21.52 L 252.4 -21.52 L 252.4 -33.25 L 259.54 -33.25 L 259.54 0 L 251.84 0 L 243.17 -16.58 L 239.9 -23.82 L 239.7 -23.82 Q 239.95 -21.06 240.29 -17.9 Q 240.62 -14.74 240.62 -11.78 L 240.62 -11.78 L 240.62 0 Z M 291.62 0 L 284.07 0 L 284.07 -26.93 L 274.94 -26.93 L 274.94 -33.25 L 300.75 -33.25 L 300.75 -26.93 L 291.62 -26.93 L 291.62 0 Z M 323.65 0 L 316.15 0 L 316.15 -33.25 L 328.13 -33.25 Q 330.79 -33.25 333.11 -32.74 Q 335.43 -32.23 337.16 -31.03 Q 338.89 -29.84 339.91 -27.85 Q 340.94 -25.86 340.94 -22.9 L 340.94 -22.9 Q 340.94 -19.23 339.33 -16.86 Q 337.72 -14.48 335.02 -13.31 L 335.02 -13.31 L 342.57 0 L 334.15 0 L 327.78 -11.99 L 323.65 -11.99 L 323.65 0 Z M 323.65 -27.29 L 323.65 -17.95 L 327.52 -17.95 Q 330.48 -17.95 332.04 -19.2 Q 333.59 -20.45 333.59 -22.9 L 333.59 -22.9 Q 333.59 -25.35 332.04 -26.32 Q 330.48 -27.29 327.52 -27.29 L 327.52 -27.29 L 323.65 -27.29 Z M 370.06 0 L 362.56 0 L 362.56 -11.83 L 352.51 -33.25 L 360.57 -33.25 L 363.53 -25.6 Q 364.24 -23.72 364.88 -21.96 Q 365.52 -20.2 366.23 -18.26 L 366.23 -18.26 L 366.43 -18.26 Q 367.15 -20.2 367.84 -21.96 Q 368.53 -23.72 369.24 -25.6 L 369.24 -25.6 L 372.25 -33.25 L 380.1 -33.25 L 370.06 -11.83 L 370.06 0 Z" stroke-linecap="round" />
</g>
</g>
</g>
</svg>