<?xml version="1.0" encoding="UTF-8" standalone="no" ?>
<!DOCTYPE svg PUBLIC "-//W3C//DTD SVG 1.1//EN" "http://www.w3.org/Graphics/SVG/1.1/DTD/svg11.dtd">
<svg xmlns="http://www.w3.org/2000/svg" xmlns:xlink="http://www.w3.org/1999/xlink" version="1.1" width="1280" height="1024" viewBox="0 0 1280 1024" xml:space="preserve">
<desc>Created with Fabric.js 5.3.0</desc>
<defs>
</defs>
<g transform="matrix(1 0 0 1 640 512)" id="background-logo"  >
<rect style="stroke: none; stroke-width: 0; stroke-dasharray: none; stroke-linecap: butt; stroke-dashoffset: 0; stroke-linejoin: miter; stroke-miterlimit: 4; fill: rgb(255,255,255); fill-opacity: 0; fill-rule: nonzero; opacity: 1;"  paint-order="stroke"  x="-640" y="-512" rx="0" ry="0" width="1280" height="1024" />
</g>
<g transform="matrix(1.9211538461538462 0 0 1.9211538461538462 640 414.4820855732619)" id="logo-logo"  >
<g style=""  paint-order="stroke"   >
		<g transform="matrix(0.4438083802381712 0 0 0.4438083802381712 65.35903938702472 -69.40020677730166)"  >
<linearGradient id="SVGID_1_592846" gradientUnits="userSpaceOnUse" gradientTransform="matrix(1 0 0 1 0 0)"  x1="523.0446777" y1="91.8099213" x2="468.3117371" y2="308.0050659">
<stop offset="0%" style="stop-color:rgb(168,223,250);stop-opacity: 1"/>
<stop offset="32.94304%" style="stop-color:rgb(12,145,212);stop-opacity: 1"/>
<stop offset="73.16454999999999%" style="stop-color:rgb(11,126,183);stop-opacity: 1"/>
<stop offset="99.52531%" style="stop-color:rgb(5,56,82);stop-opacity: 1"/>
</linearGradient>
<path style="stroke: none; stroke-width: 1; stroke-dasharray: none; stroke-linecap: butt; stroke-dashoffset: 0; stroke-linejoin: miter; stroke-miterlimit: 4; fill: url(#SVGID_1_592846); fill-rule: nonzero; opacity: 1;"  paint-order="stroke"  transform=" translate(-497.2685975786379, -193.6257300193281)" d="M 480.2781677 225.0645599 C 495.47064209999996 233.2752533 515.3939819 225.8555297 524.7776489 208.492691 C 534.1613159 191.12937920000002 529.4521484 170.39718620000002 514.2591552 162.1869812 C 499.0661926 153.9762878 479.1428222 161.3955231 469.7591857 178.7588501 C 460.3760071 196.1221619 465.0852051 216.8538666 480.2781677 225.0645599 z" stroke-linecap="round" />
</g>
		<g transform="matrix(0.4438083802381712 0 0 0.4438083802381712 78.57984539416185 -36.28207205580193)"  >
<linearGradient id="SVGID_2_592847" gradientUnits="userSpaceOnUse" gradientTransform="matrix(1 0 0 1 0 0)"  x1="676.0236206" y1="198.3514862" x2="443.4085999" y2="288.6608582">
<stop offset="0%" style="stop-color:rgb(168,223,250);stop-opacity: 1"/>
<stop offset="32.94304%" style="stop-color:rgb(12,145,212);stop-opacity: 1"/>
<stop offset="73.16454999999999%" style="stop-color:rgb(11,126,183);stop-opacity: 1"/>
<stop offset="99.52531%" style="stop-color:rgb(5,56,82);stop-opacity: 1"/>
</linearGradient>
<path style="stroke: none; stroke-width: 1; stroke-dasharray: none; stroke-linecap: butt; stroke-dashoffset: 0; stroke-linejoin: miter; stroke-miterlimit: 4; fill: url(#SVGID_2_592847); fill-rule: nonzero; opacity: 1;"  paint-order="stroke"  transform=" translate(-527.0580440961692, -268.248328861934)" d="M 613.9914551 240.4321747 C 613.7014771 239.70761109999998 612.901062 237.0509186 611.9317017000001 233.7828217 C 609.2365113000001 224.6959382 599.8315430000001 219.355835 590.6478882000001 221.7005158 C 581.7652588000001 223.96882630000002 576.0993653000002 232.6617127 577.6089478000001 241.7046357 C 577.6089478000001 241.7046357 578.6323243000002 247.7891236 578.8446045000002 248.9121857 C 578.6367188000002 249.03771980000002 553.5465088000002 264.4429932 544.7131958000002 269.9970703 C 544.5794678000002 269.9300232 544.3442383000003 269.81243900000004 544.3442383000003 269.81243900000004 C 517.4959107000003 256.38757330000004 451.4123841000003 223.67761230000005 437.98519900000025 222.11254890000004 C 444.01434330000023 265.51031500000005 491.8182678000002 294.41873180000005 492.3049011000003 294.70809940000004 C 492.3052063000003 294.70828250000005 525.4320068000003 310.97158820000004 525.4330444000003 310.97210700000005 C 538.5284423000003 317.64196780000003 555.3338623000003 316.75820930000003 567.0796508000003 307.82601940000006 L 600.1324462000003 282.29550180000007 C 613.4497681 273.3937378 619.7562256 255.4384613 613.9914551 240.4321747 z" stroke-linecap="round" />
</g>
		<g transform="matrix(0.4438083802381712 0 0 0.4438083802381712 29.442625597761264 43.1390949867056)"  >
<linearGradient id="SVGID_3_592848" gradientUnits="userSpaceOnUse" gradientTransform="matrix(1 0 0 1 0 0)"  x1="357.7669067" y1="592.6217041" x2="446.2518311" y2="339.4818115">
<stop offset="0%" style="stop-color:rgb(168,223,250);stop-opacity: 1"/>
<stop offset="32.94304%" style="stop-color:rgb(12,145,212);stop-opacity: 1"/>
<stop offset="73.16454999999999%" style="stop-color:rgb(11,126,183);stop-opacity: 1"/>
<stop offset="99.52531%" style="stop-color:rgb(5,56,82);stop-opacity: 1"/>
</linearGradient>
<path style="stroke: none; stroke-width: 1; stroke-dasharray: none; stroke-linecap: butt; stroke-dashoffset: 0; stroke-linejoin: miter; stroke-miterlimit: 4; fill: url(#SVGID_3_592848); fill-rule: nonzero; opacity: 1;"  paint-order="stroke"  transform=" translate(-416.34084725092043, -447.20206335402696)" d="M 426.016449 363.0798035 C 394.0270386 362.1329956 372.56384280000003 381.992096 366.6967469 387.0869141 C 388.4940186 395.1103211 428.07009899999997 412.3429871 428.8289185 412.5032959 C 429.93942269999997 412.9735413 430.359314 415.3041687 429.1416321 416.0111694 C 408.49334719999996 431.4017028 387.6322632 447.52969360000003 368.4344483 464.93569940000003 C 363.4381714 469.59863270000005 357.0740662 473.90509030000004 354.7566834 480.59677120000003 C 351.79568489999997 489.2007446 353.6420594 491.08508300000005 353.9770508 497.6397094 C 355.14358519999996 507.5565795 356.38424679999997 513.3538818000001 358.19369509999996 521.005249 C 359.28652959999994 525.6265869 362.6704407 529.4985962000001 367.23071289999996 530.8233642 C 374.16137699999996 532.8366699000001 381.07919309999994 528.9564208 383.27877809999995 522.5045776000001 C 385.4825135 516.0404052 387.262909 511.06347650000004 388.89791869999993 503.44573970000005 C 389.3914489999999 501.14660640000005 390.8359679999999 499.17059320000004 392.8646850999999 497.98147580000006 C 406.2239379999999 490.1510620000001 449.1149291999999 463.9970703000001 464.2530517999999 451.4393921000001 C 474.2622680999999 442.1738892000001 479.1548767999999 429.5773621000001 479.55407719999994 416.7988281000001 C 480.4794617 387.1775208 456.9378662 363.9950256 426.016449 363.0798035 z" stroke-linecap="round" />
</g>
		<g transform="matrix(0.4438083802381712 0 0 0.4438083802381712 -14.379472043573287 -33.277117495819596)"  >
<linearGradient id="SVGID_4_592849" gradientUnits="userSpaceOnUse" gradientTransform="matrix(1 0 0 1 0 0)"  x1="136.0088959" y1="329.5760498" x2="338.520813" y2="258.4232178">
<stop offset="0%" style="stop-color:rgb(168,223,250);stop-opacity: 1"/>
<stop offset="32.94304%" style="stop-color:rgb(12,145,212);stop-opacity: 1"/>
<stop offset="73.16454999999999%" style="stop-color:rgb(11,126,183);stop-opacity: 1"/>
<stop offset="99.52531%" style="stop-color:rgb(5,56,82);stop-opacity: 1"/>
</linearGradient>
<path style="stroke: none; stroke-width: 1; stroke-dasharray: none; stroke-linecap: butt; stroke-dashoffset: 0; stroke-linejoin: miter; stroke-miterlimit: 4; fill: url(#SVGID_4_592849); fill-rule: nonzero; opacity: 1;"  paint-order="stroke"  transform=" translate(-317.5998148760535, -275.01916666893914)" d="M 411.0748596 222.925354 C 381.8078613 224.3851776 332.30715940000005 226.9844665 329.6907043 227.6693726 C 320.4415893 229.2376557 311.7962951 237.7657624 304.7236022 243.3856965 C 289.92294300000003 255.5066682 260.8159484 280.96466069999997 260.8093566 281.0884095 C 259.6584167 281.5017396 257.0910338 282.2921754 255.8593291 282.7418214 C 250.4423674 284.69702159999997 243.4587096 286.2991639 238.76023849999999 289.724579 C 232.3235777 293.6887819 228.60937489999998 300.5743104 225.39183029999998 307.5513002 C 222.45156849999998 313.92700210000004 224.78219589999998 321.4955446 230.7915038 325.1271974 C 236.8652038 328.7985231 244.74568169999998 327.2482912 248.9870604 321.5582887 C 250.19483929999998 319.9387513 253.57080059999998 315.30554209999997 253.517105 315.6058046 C 254.1268767 315.341675 270.9056701 314.4747011 281.375122 307.7203981 C 298.625946 296.5911562 327.5762023 276.95932020000004 338.9588012 269.10113540000003 C 344.31607049999997 269.30047620000005 350.1349487 269.41638200000006 356.2154235 269.4808656 L 358.0963134 266.5892946 C 371.0383606 243.0525665 394.0921631 229.841095 411.0748596 222.925354 z" stroke-linecap="round" />
</g>
		<g transform="matrix(0.4438083802381712 0 0 0.4438083802381712 -58.82105340811552 35.34542813856024)"  >
<linearGradient id="SVGID_5_592850" gradientUnits="userSpaceOnUse" gradientTransform="matrix(1 0 0 1 0 0)"  x1="11.975317" y1="587.1078491" x2="423.8407288" y2="308.8820496">
<stop offset="0%" style="stop-color:rgb(168,223,250);stop-opacity: 1"/>
<stop offset="32.94304%" style="stop-color:rgb(12,145,212);stop-opacity: 1"/>
<stop offset="73.16454999999999%" style="stop-color:rgb(11,126,183);stop-opacity: 1"/>
<stop offset="99.52531%" style="stop-color:rgb(5,56,82);stop-opacity: 1"/>
</linearGradient>
<path style="stroke: none; stroke-width: 1; stroke-dasharray: none; stroke-linecap: butt; stroke-dashoffset: 0; stroke-linejoin: miter; stroke-miterlimit: 4; fill: url(#SVGID_5_592850); fill-rule: nonzero; opacity: 1;"  paint-order="stroke"  transform=" translate(-217.46294648097597, -429.6411807858275)" d="M 330.3800354 318.12323 C 329.263855 319.13742069999995 303.6453552 334.9738159 303.6428223 334.9753723 C 289.69369509999996 343.5178528 292.778595 360.1125793 293.353302 362.66827390000003 C 273.9154053 382.7059631 254.68453979999998 403.03576660000004 235.4750671 423.28802490000004 C 230.9358825 428.43524170000006 225.541214 433.13607790000003 219.0467376 435.6342468 C 219.0351562 435.6383667 104.5310363 482.6075134 96.7075729 485.93557740000006 C 87.9212341 489.67285160000006 82.6106796 499.62905880000005 84.1262588 508.9557495000001 L 86.5960235 527.3141479000001 C 87.623764 534.9535522000001 93.9466094 541.0401611000001 101.6539459 541.1572875 C 110.2895431 541.2885741 117.2493667 534.3928222000001 117.3095474 525.8930663000001 C 117.3231964 524.0073851000001 117.3366394 522.0756835000001 117.3488235 520.1903075000001 C 117.3683471 517.1701049000002 119.3751144 514.5352782000001 122.2831726 513.7197875000002 C 146.3653717 506.9665221000002 250.5257111 477.91738880000014 250.5257111 477.91738880000014 C 263.3520203 473.4879454000001 274.8566895 465.51510610000014 284.2411805 455.7363280000001 C 306.02774059999996 434.49047840000014 327.80853279999997 413.09152210000013 349.35552989999996 391.5804442000001 C 349.3556213 391.579834 359.4686584 358.6878662 330.3800354 318.12323 z" stroke-linecap="round" />
</g>
		<g transform="matrix(0.4438083802381712 0 0 0.4438083802381712 27.424679220280154 -20.66579819124692)"  >
<linearGradient id="SVGID_6_592851" gradientUnits="userSpaceOnUse" gradientTransform="matrix(1 0 0 1 0 0)"  x1="466.7736206" y1="167.8613434" x2="338.8353577" y2="490.7857361">
<stop offset="0%" style="stop-color:rgb(168,223,250);stop-opacity: 1"/>
<stop offset="32.94304%" style="stop-color:rgb(12,145,212);stop-opacity: 1"/>
<stop offset="73.16454999999999%" style="stop-color:rgb(11,126,183);stop-opacity: 1"/>
<stop offset="99.52531%" style="stop-color:rgb(5,56,82);stop-opacity: 1"/>
</linearGradient>
<path style="stroke: none; stroke-width: 1; stroke-dasharray: none; stroke-linecap: butt; stroke-dashoffset: 0; stroke-linejoin: miter; stroke-miterlimit: 4; fill: url(#SVGID_6_592851); fill-rule: nonzero; opacity: 1;"  paint-order="stroke"  transform=" translate(-411.79396065000003, -303.4353027)" d="M 432.2603455 221.914978 C 432.258667 221.914978 383.7466736 231.4388275 362.8963929 269.5325927 L 334.15478520000005 313.7174377 C 362.15463260000007 351.9299926 356.31201180000005 384.64233390000004 356.31201180000005 384.64233390000004 C 356.31201180000005 384.64233390000004 360.6680299000001 384.95495600000004 360.6679078 384.9556274 L 360.6680299 384.95495600000004 C 360.6680299 384.95495600000004 390.1900026 356.0112609 424.06301890000003 358.21154780000006 L 424.0639039 358.21154780000006 L 446.5717164 318.87948600000004 C 447.284485 317.63372790000005 448.0954286 316.47454830000004 448.99057020000004 315.4119567 C 451.67593400000004 312.22583000000003 455.1236574 309.9141234 458.977234 308.7673949 L 488.1280214 300.0891417 C 488.58099380000004 299.9538878 488.99176040000003 299.71624740000004 489.4331361 299.54959090000006 L 489.4331361 299.54879740000007 C 489.433136 299.5487976 438.1657104 269.1852417 432.2603455 221.914978 z" stroke-linecap="round" />
</g>
</g>
</g>
<g transform="matrix(1.9211538461538462 0 0 1.9211538461538462 644.2188538461539 652.3954813132442)" id="text-logo"  >
<g style=""  paint-order="stroke"   >
		<g transform="matrix(1 0 0 1 0 0)" id="text-logo-path-0"  >
<filter id="SVGID_592845" y="-20%" height="140%" x="-20.765364696277775%" width="141.53072939255554%" >
	<feGaussianBlur in="SourceAlpha" stdDeviation="0"></feGaussianBlur>
	<feOffset dx="-3" dy="0" result="oBlur" ></feOffset>
	<feFlood flood-color="rgb(8,146,200)" flood-opacity="1"/>
	<feComposite in2="oBlur" operator="in" />
	<feMerge>
		<feMergeNode></feMergeNode>
		<feMergeNode in="SourceGraphic"></feMergeNode>
	</feMerge>
</filter>
<path style="stroke: none; stroke-width: 0; stroke-dasharray: none; stroke-linecap: butt; stroke-dashoffset: 0; stroke-linejoin: miter; stroke-miterlimit: 4; fill: rgb(25,118,210); fill-rule: nonzero; opacity: 1;filter: url(#SVGID_592845);"  paint-order="stroke"  transform=" translate(-196.89499999999998, 17.28)" d="M 7.01 -34.56 L 20.93 -34.56 Q 26.4 -34.56 28.7 -32.16 L 28.7 -32.16 Q 30.43 -30.34 30.43 -27.55 L 30.43 -27.55 Q 30.43 -26.59 30.24 -25.54 L 30.24 -25.54 L 29.57 -21.79 Q 28.99 -18.67 27.58 -16.75 Q 26.16 -14.83 24.43 -14.02 L 24.43 -14.02 L 28.8 0 L 19.1 0 L 15.07 -12.91 L 12.1 -12.91 L 10.13 0 L 0.91 0 L 7.01 -34.56 Z M 17.9 -27.07 L 17.9 -27.07 L 14.3 -27.07 L 13.06 -18.72 L 16.42 -18.72 Q 18.96 -18.72 20.06 -19.94 Q 21.17 -21.17 21.17 -23.18 L 21.17 -23.18 Q 21.17 -27.07 17.9 -27.07 Z M 67.44 -7.49 L 66.1 0 L 42 0 L 48.1 -34.56 L 72.19 -34.56 L 70.85 -27.07 L 55.39 -27.07 L 54.29 -20.59 L 67.06 -20.59 L 65.71 -13.1 L 52.94 -13.1 L 51.98 -7.49 L 67.44 -7.49 Z M 104.45 -7.49 L 103.1 0 L 81.22 0 L 87.31 -34.56 L 95.95 -34.56 L 91.2 -7.49 L 104.45 -7.49 Z M 142.75 0 L 133.63 0 L 133.92 -7.54 L 125.9 -7.54 L 123.55 0 L 114.38 0 L 126.72 -34.56 L 142.56 -34.56 L 142.75 0 Z M 134.69 -26.16 L 131.66 -26.16 L 127.87 -13.97 L 134.16 -13.97 L 134.69 -26.16 Z M 169.87 -22.42 L 170.98 -22.42 L 179.09 -34.56 L 187.73 -34.56 L 172.94 -13.3 L 170.59 0 L 161.9 0 L 164.26 -13.3 L 156.96 -34.56 L 166.13 -34.56 L 169.87 -22.42 Z M 220.22 -7.49 L 218.88 0 L 194.78 0 L 200.88 -34.56 L 224.98 -34.56 L 223.63 -27.07 L 208.18 -27.07 L 207.07 -20.59 L 219.84 -20.59 L 218.5 -13.1 L 205.73 -13.1 L 204.77 -7.49 L 220.22 -7.49 Z M 258.1 -34.56 L 266.74 -34.56 L 260.69 0 L 252 0 L 245.95 -18.91 L 242.69 0 L 234 0 L 240.1 -34.56 L 249.02 -34.56 L 254.98 -16.9 L 258.1 -34.56 Z M 312.62 -34.56 L 311.28 -27.07 L 299.47 -27.07 L 294.72 0 L 286.03 0 L 290.78 -27.07 L 278.93 -27.07 L 280.27 -34.56 L 312.62 -34.56 Z M 326.16 -34.56 L 340.08 -34.56 Q 345.55 -34.56 347.86 -32.16 L 347.86 -32.16 Q 349.58 -30.34 349.58 -27.55 L 349.58 -27.55 Q 349.58 -26.59 349.39 -25.54 L 349.39 -25.54 L 348.72 -21.79 Q 348.14 -18.67 346.73 -16.75 Q 345.31 -14.83 343.58 -14.02 L 343.58 -14.02 L 347.95 0 L 338.26 0 L 334.22 -12.91 L 331.25 -12.91 L 329.28 0 L 320.06 0 L 326.16 -34.56 Z M 337.06 -27.07 L 337.06 -27.07 L 333.46 -27.07 L 332.21 -18.72 L 335.57 -18.72 Q 338.11 -18.72 339.22 -19.94 Q 340.32 -21.17 340.32 -23.18 L 340.32 -23.18 Q 340.32 -27.07 337.06 -27.07 Z M 375.02 -22.42 L 376.13 -22.42 L 384.24 -34.56 L 392.88 -34.56 L 378.1 -13.3 L 375.74 0 L 367.06 0 L 369.41 -13.3 L 362.11 -34.56 L 371.28 -34.56 L 375.02 -22.42 Z" stroke-linecap="round" />
</g>
</g>
</g>
</svg>